# xmcd
#
# Track frame offsets:
#	150
#	37389
#	67639
#
# Disc length: 1652 seconds
#
# Revision: 0
# Processed by: cddbd v1.5.2PL0 Copyright (c) Steve Scherf et al.
# Submitted via: EasyCDDAExtractor 9.0.0.1
#
DISCID=21067203
DTITLE=Black Sabbath - The Palace Auburn Hills 14-02-99 Master Disc 2
DYEAR=1999
DGENRE=Hard Rock
TTITLE0=Iron Man
TTITLE1=Children Of The Grave
TTITLE2=Paranoid
EXTD=
EXTT0=
EXTT1=
EXTT2=
PLAYORDER=
